<?xml version="1.0" standalone="no"?><!DOCTYPE svg PUBLIC "-//W3C//DTD SVG 1.1//EN" "http://www.w3.org/Graphics/SVG/1.1/DTD/svg11.dtd"><svg t="1661102556667" class="icon" viewBox="0 0 1024 1024" version="1.1" xmlns="http://www.w3.org/2000/svg" p-id="2522" xmlns:xlink="http://www.w3.org/1999/xlink" width="200" height="200"><defs><style type="text/css">@font-face { font-family: feedback-iconfont; src: url("//at.alicdn.com/t/font_1031158_u69w8yhxdu.woff2?t=1630033759944") format("woff2"), url("//at.alicdn.com/t/font_1031158_u69w8yhxdu.woff?t=1630033759944") format("woff"), url("//at.alicdn.com/t/font_1031158_u69w8yhxdu.ttf?t=1630033759944") format("truetype"); }
</style></defs><path d="M768 512v-85.333333h42.666667v85.333333h85.333333v42.666667h-85.333333v85.333333h-42.666667v-85.333333h-85.333333v-42.666667h85.333333z m-85.333333 221.866667L588.8 640H307.2L213.333333 733.866667V810.666667h469.333334v-76.8z m42.666666-17.066667V853.333333H170.666667v-136.533333L290.133333 597.333333h311.466667l123.733333 119.466667zM448 170.666667C529.066667 170.666667 597.333333 238.933333 597.333333 320v85.333333c0 81.066667-68.266667 149.333333-149.333333 149.333334S298.666667 486.4 298.666667 405.333333v-85.333333C298.666667 238.933333 366.933333 170.666667 448 170.666667z m0 42.666666C388.266667 213.333333 341.333333 260.266667 341.333333 320v85.333333c0 59.733333 46.933333 106.666667 106.666667 106.666667S554.666667 465.066667 554.666667 405.333333v-85.333333C554.666667 260.266667 507.733333 213.333333 448 213.333333z" fill="#e6e6e6" p-id="2523"></path></svg>