<?xml version="1.0" standalone="no"?><!DOCTYPE svg PUBLIC "-//W3C//DTD SVG 1.1//EN" "http://www.w3.org/Graphics/SVG/1.1/DTD/svg11.dtd"><svg t="1660980881376" class="icon" viewBox="0 0 1024 1024" version="1.1" xmlns="http://www.w3.org/2000/svg" p-id="3218" xmlns:xlink="http://www.w3.org/1999/xlink" width="200" height="200"><defs><style type="text/css">@font-face { font-family: feedback-iconfont; src: url("//at.alicdn.com/t/font_1031158_u69w8yhxdu.woff2?t=1630033759944") format("woff2"), url("//at.alicdn.com/t/font_1031158_u69w8yhxdu.woff?t=1630033759944") format("woff"), url("//at.alicdn.com/t/font_1031158_u69w8yhxdu.ttf?t=1630033759944") format("truetype"); }
</style></defs><path d="M512 456.310154L94.247385 38.557538a39.542154 39.542154 0 0 0-55.689847 0 39.266462 39.266462 0 0 0 0 55.689847L456.310154 512 38.557538 929.752615a39.542154 39.542154 0 0 0 0 55.689847 39.266462 39.266462 0 0 0 55.689847 0L512 567.689846l417.752615 417.752616c15.163077 15.163077 40.290462 15.36 55.689847 0a39.266462 39.266462 0 0 0 0-55.689847L567.689846 512 985.442462 94.247385a39.542154 39.542154 0 0 0 0-55.689847 39.266462 39.266462 0 0 0-55.689847 0L512 456.310154z" p-id="3219"></path></svg>