<?xml version="1.0" standalone="no"?><!DOCTYPE svg PUBLIC "-//W3C//DTD SVG 1.1//EN" "http://www.w3.org/Graphics/SVG/1.1/DTD/svg11.dtd"><svg t="1660879823196" class="icon" viewBox="0 0 1024 1024" version="1.1" xmlns="http://www.w3.org/2000/svg" p-id="5950" xmlns:xlink="http://www.w3.org/1999/xlink" width="200" height="200"><defs><style type="text/css">@font-face { font-family: feedback-iconfont; src: url("//at.alicdn.com/t/font_1031158_u69w8yhxdu.woff2?t=1630033759944") format("woff2"), url("//at.alicdn.com/t/font_1031158_u69w8yhxdu.woff?t=1630033759944") format("woff"), url("//at.alicdn.com/t/font_1031158_u69w8yhxdu.ttf?t=1630033759944") format("truetype"); }
</style></defs><path d="M201.4291722051213 817.5208954447645c-10.099864700228474 10.099864700228474-10.099864700228474 25.249660369730368 0 35.34952506995885 88.37381267489712 83.32388032478289 201.9972857195246 131.2982355796069 323.19565797974377 131.2982355796069 257.54654018994034 0 467.1187237442159-209.57218493511638 467.1187237442159-467.1187237442159S782.1713703748055 49.93120860589835 524.6248301848652 49.93120860589835 57.506106440649205 259.5033921601738 57.506106440649205 517.0499323501142c0 88.37381267489712 25.249660369730368 176.74762534979425 73.2240156245544 252.49660783982617 7.574897834750945 12.624830184865184 22.72469488509366 15.149797050342714 35.34952506995885 7.574897834750945 12.624830184865184-7.574897834750945 15.149797050342714-22.72469488509366 7.574899215591769-35.34952506995885-42.92442290470979-65.64911778980346-65.64911778980346-143.92306576447208-65.64911917064428-224.72198060461824 0-229.77191295473253 186.84749005002274-416.6194030047552 416.6194030047552-416.6194030047552S941.2442331896203 287.27801939538176 941.2442331896203 517.0499323501142s-186.84749005002274 416.6194030047552-416.6194030047552 416.6194030047552c-108.57354069451323 0-209.57218493511638-40.399457420073084-287.84613290978496-116.14843991010503-10.099864700228474-10.099864700228474-27.774627235207902-10.099864700228474-35.34952506995885 0z" fill="" p-id="5951"></path><path d="M519.5748978347511 191.32930888573367c-15.149797050342714 0-25.249660369730368 10.099864700228474-25.249660369730368 25.249660369730368v308.0458609294011c0 15.149797050342714 10.099864700228474 25.249660369730368 25.249660369730368 25.249660369730368h285.32116742514825c15.149797050342714 0 25.249660369730368-10.099864700228474 25.249660369730368-25.249660369730368s-10.099864700228474-25.249660369730368-25.249660369730368-25.249660369730368H544.824559585322V216.57896925546407c0-15.149797050342714-10.099864700228474-25.249660369730368-25.24966175057119-25.249660369730368z" fill="" p-id="5952"></path></svg>