<?xml version="1.0" standalone="no"?><!DOCTYPE svg PUBLIC "-//W3C//DTD SVG 1.1//EN" "http://www.w3.org/Graphics/SVG/1.1/DTD/svg11.dtd"><svg t="1661238740059" class="icon" viewBox="0 0 1024 1024" version="1.1" xmlns="http://www.w3.org/2000/svg" p-id="2432" xmlns:xlink="http://www.w3.org/1999/xlink" width="200" height="200"><defs><style type="text/css">@font-face { font-family: feedback-iconfont; src: url("//at.alicdn.com/t/font_1031158_u69w8yhxdu.woff2?t=1630033759944") format("woff2"), url("//at.alicdn.com/t/font_1031158_u69w8yhxdu.woff?t=1630033759944") format("woff"), url("//at.alicdn.com/t/font_1031158_u69w8yhxdu.ttf?t=1630033759944") format("truetype"); }
</style></defs><path d="M314.88 626.133333l96.213333 94.933334a130.346667 130.346667 0 0 1-108.16 54.826666 104.32 104.32 0 0 1-73.386666-27.52 102.4 102.4 0 0 0 42.666666-26.88 110.933333 110.933333 0 0 0 25.386667-64v-2.346666a59.52 59.52 0 0 1 7.893333-26.88 31.146667 31.146667 0 0 1 10.026667-2.56m14.08-64c-64 0-85.333333 27.733333-95.146667 85.333333v2.773333c-2.986667 18.773333-5.12 25.386667-8.533333 29.013334a39.68 39.68 0 0 1-8.746667 7.04 33.493333 33.493333 0 0 1-18.133333 5.12 29.866667 29.866667 0 0 1-8.746667-1.066667h-1.92a29.013333 29.013333 0 0 0-10.24-1.92A27.946667 27.946667 0 0 0 149.333333 717.013333c8.96 81.28 78.72 122.88 153.386667 122.88A189.226667 189.226667 0 0 0 481.28 725.333333a27.946667 27.946667 0 0 0-6.4-30.293333l-126.293333-125.653333a28.16 28.16 0 0 0-19.626667-8.106667l0.64 0.426667zM808.32 234.666667H810.666667c0 10.453333-9.386667 49.066667-97.493334 158.72-15.36 18.986667-31.146667 37.76-47.146666 56.106666-31.146667 35.84-147.626667 157.44-147.626667 157.44l-80.853333-81.493333s117.12-114.346667 154.24-147.413333c19.84-17.493333 40.32-34.56 60.586666-50.986667 100.053333-80.426667 140.8-92.373333 155.946667-92.373333m0-64c-47.146667 0-111.786667 38.826667-196.053333 106.666666-21.333333 17.066667-42.666667 34.773333-62.72 52.906667-38.677333 34.133333-76.373333 69.269333-113.066667 105.386667-14.72 14.72-29.653333 29.653333-44.16 44.586666l-3.413333 3.626667a60.8 60.8 0 0 0 0 85.333333l85.333333 86.4c11.306667 11.306667 26.666667 17.706667 42.666667 17.706667a60.586667 60.586667 0 0 0 42.666666-17.706667l3.2-3.2 9.813334-9.813333 34.773333-35.413333c35.84-37.12 71.893333-76.16 105.386667-114.773334 16.64-18.986667 32.853333-38.4 48.64-58.026666 102.186667-126.08 142.72-208 89.173333-249.813334a66.56 66.56 0 0 0-42.666667-13.866666h0.426667z" fill="#707070" p-id="2433"></path></svg>