<?xml version="1.0" standalone="no"?><!DOCTYPE svg PUBLIC "-//W3C//DTD SVG 1.1//EN" "http://www.w3.org/Graphics/SVG/1.1/DTD/svg11.dtd"><svg t="1660981381016" class="icon" viewBox="0 0 1024 1024" version="1.1" xmlns="http://www.w3.org/2000/svg" p-id="5443" xmlns:xlink="http://www.w3.org/1999/xlink" width="200" height="200"><defs><style type="text/css">@font-face { font-family: feedback-iconfont; src: url("//at.alicdn.com/t/font_1031158_u69w8yhxdu.woff2?t=1630033759944") format("woff2"), url("//at.alicdn.com/t/font_1031158_u69w8yhxdu.woff?t=1630033759944") format("woff"), url("//at.alicdn.com/t/font_1031158_u69w8yhxdu.ttf?t=1630033759944") format("truetype"); }
</style></defs><path d="M512.7 664.3c-82.9 0-150.4-67.4-150.4-150.4 0-82.9 67.4-150.4 150.4-150.4 82.9 0 150.4 67.4 150.4 150.4-0.1 83-67.5 150.4-150.4 150.4z m0-244.7c-52 0-94.4 42.3-94.4 94.4 0 52 42.3 94.4 94.4 94.4S607 566 607 514c0-52-42.3-94.4-94.3-94.4z" fill="" p-id="5444"></path><path d="M631.2 940.5c-15.2 0-30.1-6-41.2-17.3l-63.5-64.8c-4.1-4.2-9.5-6.5-15.4-6.5-5.8 0-11.3 2.3-15.3 6.4l-63.5 64.4c-17.4 17.6-44 22.2-66.2 11.4l-94.5-45.7c-22.2-10.8-35.2-34.5-32.2-59l11-90.1c0.7-5.8-0.9-11.5-4.5-16-3.6-4.6-8.8-7.4-14.6-8l-89.9-9.5c-24.6-2.6-44.8-20.5-50.2-44.6L67.7 558.8c-5.5-24.1 5-49 26-62l77.3-47.6c5-3.1 8.4-7.9 9.7-13.5 1.3-5.7 0.3-11.5-2.8-16.4L129.2 343c-13.3-20.8-11.9-47.8 3.5-67.1l65.5-82c15.4-19.3 41.4-26.7 64.7-18.3l85.4 30.7c5.5 2 11.4 1.7 16.6-0.9 5.2-2.5 9.2-7 11.1-12.5l29.2-85.6c8-23.4 29.9-39.1 54.6-39.1h105c24.7 0 46.7 15.7 54.6 39.1l29.6 86.8c1.9 5.5 5.8 9.9 11 12.5s11.1 2.8 16.6 0.9l86.1-30.6c23.3-8.3 49.2-0.8 64.6 18.5l65.2 82.3c15.3 19.4 16.7 46.3 3.3 67.1l-49.1 76.3c-3.2 4.9-4.2 10.7-2.9 16.4 1.3 5.7 4.7 10.5 9.7 13.6l76.8 47.7c21 13 31.4 38 25.8 62l-23.6 102.3a57.67 57.67 0 0 1-50.4 44.4l-90.3 9.2c-5.8 0.6-11 3.4-14.6 8-3.6 4.5-5.3 10.2-4.6 16l10.7 89.8c2.9 24.5-10.1 48.2-32.4 58.9l-94.7 45.4c-8.1 3.9-16.6 5.7-25 5.7zM511 795.9h0.1c21 0 40.6 8.3 55.3 23.3l63.5 64.8c0.5 0.5 1.3 0.7 2 0.4l94.7-45.4c0.7-0.3 1.1-1 1-1.8l-10.7-89.8c-2.5-20.8 3.4-41.3 16.5-57.6s31.8-26.5 52.7-28.7l90.3-9.2c0.7-0.1 1.3-0.6 1.5-1.3l23.6-102.3c0.2-0.7-0.1-1.5-0.8-1.9l-76.8-47.7c-17.8-11.1-30.2-28.4-34.8-48.8-4.6-20.4-0.9-41.4 10.5-59l49.1-76.3c0.4-0.6 0.4-1.4-0.1-2l-65.2-82.3c-0.5-0.6-1.2-0.8-1.9-0.6l-86.1 30.6c-19.7 7-40.9 5.9-59.7-3.2-18.8-9.1-32.9-25-39.7-44.8l-29.6-86.8c-0.2-0.7-0.9-1.2-1.6-1.2h-105c-0.7 0-1.4 0.5-1.6 1.2L429 211c-6.8 19.8-20.9 35.8-39.8 44.9-18.9 9.1-40.1 10.2-59.9 3.1l-85.4-30.7c-0.7-0.2-1.5 0-1.9 0.5l-65.5 82c-0.5 0.6-0.5 1.4-0.1 2l48.7 76.2c11.3 17.7 14.9 38.6 10.2 59.1-4.7 20.4-17.1 37.7-34.9 48.7l-77.3 47.6c-0.6 0.4-0.9 1.1-0.8 1.9l23.3 102.4c0.2 0.7 0.8 1.3 1.5 1.3l89.9 9.5c20.8 2.2 39.5 12.4 52.6 28.8 13 16.4 18.8 36.9 16.3 57.7l-11 90.1c-0.1 0.7 0.3 1.4 1 1.8l94.5 45.7c0.7 0.3 1.5 0.2 2-0.3l63.5-64.4c14.6-14.8 34.2-23 55.1-23z" fill="" p-id="5445"></path></svg>