<?xml version="1.0" standalone="no"?><!DOCTYPE svg PUBLIC "-//W3C//DTD SVG 1.1//EN" "http://www.w3.org/Graphics/SVG/1.1/DTD/svg11.dtd"><svg t="1661136259043" class="icon" viewBox="0 0 1024 1024" version="1.1" xmlns="http://www.w3.org/2000/svg" p-id="8592" xmlns:xlink="http://www.w3.org/1999/xlink" width="200" height="200"><defs><style type="text/css">@font-face { font-family: feedback-iconfont; src: url("//at.alicdn.com/t/font_1031158_u69w8yhxdu.woff2?t=1630033759944") format("woff2"), url("//at.alicdn.com/t/font_1031158_u69w8yhxdu.woff?t=1630033759944") format("woff"), url("//at.alicdn.com/t/font_1031158_u69w8yhxdu.ttf?t=1630033759944") format("truetype"); }
</style></defs><path d="M479.685014 172.59594c-137.702222 0-321.854359 13.935384-331.201238 134.411269-4.606925 59.517535 31.599695 92.061742 60.700477 118.215402 30.989805 27.860535 49.703005 46.813189 43.932582 83.763752-3.348258 21.518083-47.042409 26.487258-85.59547 30.864962-45.945425 5.227048-89.343841 10.158361-99.997482 44.180222-9.92914 31.685653 0.867764 72.29863 29.606295 111.424742 34.45165 46.888913 144.378272 155.947771 420.430468 155.947771 349.32399 0 442.520579-216.629829 442.520579-344.631108C960.082248 472.568942 946.604282 172.59594 479.685014 172.59594zM517.561669 812.336276c-67.110467 0-293.497521-10.101055-388.945383-140.009777-24.712845-33.641191-28.509311-61.635779-23.816428-76.620052 3.061732-9.748015 44.74304-14.487969 67.13912-17.034978 49.826825-5.666046 111.844298-12.71458 119.789247-63.657832 9.309016-59.755965-25.619494-91.156116-56.42715-118.844735-27.365254-24.589025-50.990325-45.820582-47.862078-86.148056 5.131881-66.185398 100.721982-98.357122 292.248064-98.357122 176.22663 0 302.94059 43.35032 376.621706 128.850623 60.042491 69.675896 64.706721 144.874575 64.706721 166.258605C921.014464 538.048259 909.692604 812.336276 517.561669 812.336276z" p-id="8593" fill="#e6e6e6"></path><path d="M337.900823 257.503748l-2.613524-0.037862c-42.539862 0-76.352969 24.951275-76.991512 56.818053-0.638543 32.791847 33.250288 59.307757 77.143984 60.35767l2.613524 0.037862c42.549072 0 76.371388-24.961508 76.991512-56.819077C415.684374 285.068548 381.795543 258.552637 337.900823 257.503748zM338.054319 335.611687l-1.678222-0.019443c-23.683399-0.572028-39.163975-12.743232-39.010479-20.535709 0.143263-7.554046 14.993482-18.522865 37.923728-18.522865l1.678222 0.019443c23.683399 0.572028 39.163975 12.743232 39.010479 20.544919C375.834784 324.642868 360.983541 335.611687 338.054319 335.611687z" p-id="8594" fill="#e6e6e6"></path><path d="M513.707898 648.184659l-2.613524-0.037862c-42.539862 0-76.352969 24.951275-76.991512 56.818053-0.638543 32.791847 33.250288 59.307757 77.143984 60.35767l2.613524 0.037862c42.549072 0 76.371388-24.961508 76.991512-56.819077C591.491449 675.750481 557.602617 649.234571 513.707898 648.184659zM513.860371 726.292598l-1.679245-0.019443c-23.683399-0.572028-39.163975-12.743232-39.010479-20.535709 0.143263-7.554046 14.993482-18.522865 37.923728-18.522865l1.679245 0.019443c23.683399 0.572028 39.163975 12.743232 39.010479 20.544919C551.640836 715.323778 536.789593 726.292598 513.860371 726.292598z" p-id="8595" fill="#e6e6e6"></path><path d="M709.048865 599.349417l-2.613524-0.037862c-42.539862 0-76.352969 24.951275-76.991512 56.819077-0.639566 32.791847 33.250288 59.307757 77.143984 60.35767l2.613524 0.037862c42.549072 0 76.371388-24.961508 76.991512-56.818053C786.831392 626.915239 752.942561 600.399329 709.048865 599.349417zM709.201337 677.457356l-1.679245-0.019443c-23.683399-0.572028-39.163975-12.743232-39.010479-20.535709 0.143263-7.554046 14.993482-18.522865 37.923728-18.522865l1.678222 0.019443c23.683399 0.572028 39.163975 12.743232 39.010479 20.544919C746.981802 666.488537 732.130559 677.457356 709.201337 677.457356z" p-id="8596" fill="#e6e6e6"></path><path d="M796.951891 443.077258l-2.613524-0.037862c-42.539862 0-76.352969 24.951275-76.991512 56.818053-0.639566 32.791847 33.250288 59.307757 77.143984 60.35767l2.613524 0.037862c42.549072 0 76.371388-24.961508 76.991512-56.818053C874.735441 470.642057 840.845587 444.126146 796.951891 443.077258zM797.104363 521.185196l-1.679245-0.019443c-23.683399-0.572028-39.163975-12.743232-39.010479-20.535709 0.143263-7.554046 14.993482-18.522865 37.923728-18.522865l1.678222 0.019443c23.683399 0.572028 39.163975 12.743232 39.010479 20.544919C834.884828 510.216377 820.033585 521.185196 797.104363 521.185196z" p-id="8597" fill="#e6e6e6"></path></svg>