<?xml version="1.0" standalone="no"?><!DOCTYPE svg PUBLIC "-//W3C//DTD SVG 1.1//EN" "http://www.w3.org/Graphics/SVG/1.1/DTD/svg11.dtd"><svg t="1660879946860" class="icon" viewBox="0 0 1024 1024" version="1.1" xmlns="http://www.w3.org/2000/svg" p-id="7180" xmlns:xlink="http://www.w3.org/1999/xlink" width="200" height="200"><defs><style type="text/css">@font-face { font-family: feedback-iconfont; src: url("//at.alicdn.com/t/font_1031158_u69w8yhxdu.woff2?t=1630033759944") format("woff2"), url("//at.alicdn.com/t/font_1031158_u69w8yhxdu.woff?t=1630033759944") format("woff"), url("//at.alicdn.com/t/font_1031158_u69w8yhxdu.ttf?t=1630033759944") format("truetype"); }
</style></defs><path d="M768 588.8c-40.96 0-76.8 12.8-107.52 35.84 0 0 0-2.56-2.56-2.56l-110.08-110.08 366.08-366.08c10.24-10.24 10.24-25.6 0-35.84-5.12-5.12-12.8-7.68-17.92-7.68s-12.8 2.56-17.92 7.68l-366.08 366.08-366.08-366.08c-5.12-5.12-12.8-7.68-17.92-7.68-7.68 0-12.8 2.56-17.92 7.68-10.24 10.24-10.24 25.6 0 35.84l366.08 366.08-110.08 110.08-2.56 2.56c-30.72-23.04-66.56-35.84-107.52-35.84-99.84 0-179.2 79.36-179.2 179.2s79.36 179.2 179.2 179.2 179.2-79.36 179.2-179.2c0-40.96-12.8-76.8-35.84-107.52 0 0 2.56 0 2.56-2.56l110.08-110.08 110.08 110.08 2.56 2.56c-23.04 30.72-35.84 66.56-35.84 107.52 0 17.92 2.56 35.84 7.68 51.2 5.12 12.8 17.92 20.48 30.72 17.92 12.8-5.12 20.48-17.92 17.92-30.72-2.56-12.8-5.12-23.04-5.12-35.84 0-71.68 56.32-128 128-128s128 56.32 128 128-56.32 128-128 128c-25.6 0-51.2-7.68-74.24-23.04-12.8-7.68-28.16-5.12-35.84 5.12-7.68 12.8-5.12 28.16 5.12 35.84 30.72 20.48 66.56 33.28 102.4 33.28 99.84 0 179.2-79.36 179.2-179.2s-76.8-181.76-176.64-181.76z m-512 307.2c-71.68 0-128-56.32-128-128s56.32-128 128-128 128 56.32 128 128-56.32 128-128 128z" p-id="7181"></path></svg>